<svg version="1.1" viewBox="0.0 0.0 549.1076115485564 137.2782152230971" fill="none" stroke="none" stroke-linecap="square" stroke-miterlimit="10" xmlns:xlink="http://www.w3.org/1999/xlink" xmlns="http://www.w3.org/2000/svg"><clipPath id="p.0"><path d="m0 0l549.1076 0l0 137.27821l-549.1076 0l0 -137.27821z" clip-rule="nonzero"/></clipPath><g clip-path="url(#p.0)"><path fill="#000000" fill-opacity="0.0" d="m0 0l549.1076 0l0 137.27821l-549.1076 0z" fill-rule="evenodd"/><path fill="#ffffff" d="m66.150536 1.167979c-10.900524 0 -21.285614 2.2049234 -31.155281 6.61477c-9.850565 4.3907576 -17.763462 10.165556 -23.73872 17.324398c-5.975256 7.1397476 -8.96287 14.699486 -8.96287 22.67921c0 5.746166 1.584481 9.879204 4.7534714 12.399113c3.1689897 2.5199127 7.8556542 3.779869 14.059965 3.779869c0 -0.2290802 -0.4104309 -1.1931419 -1.2313194 -2.89217c-0.8208904 -1.6990318 -1.2313213 -4.7152863 -1.2313213 -9.048779c0 -9.163315 2.1381168 -16.961678 6.414322 -23.395094c4.2953053 -6.452505 9.841032 -11.291882 16.637148 -14.518132c6.796135 -3.2262497 13.773613 -4.8393764 20.932457 -4.8393764c7.8651733 0 13.697243 1.8231173 17.496208 5.4693546c3.8180542 3.6271448 5.7270737 8.132445 5.7270737 13.515893c0 4.467119 -1.1740494 8.896059 -3.5221481 13.28681c-2.3480988 4.3907547 -5.4598083 8.027447 -9.335129 10.910076c-3.8562317 2.8826294 -8.017906 4.3239403 -12.4850235 4.3239403l-1.0308723 0l8.246983 -39.05864l-26.029549 3.493515l-23.939167 111.90701l25.3423 0l14.432228 -67.37902c2.2335587 -0.36271667 4.9348297 -0.5440674 8.103809 -0.5440674c11.129608 0 16.69442 7.454735 16.69442 22.36422c0 7.9606323 -1.4413223 15.234016 -4.323944 21.820152c-2.863533 6.567047 -7.225662 9.850563 -13.086365 9.850563c-2.1190147 0 -4.0853043 -0.4677124 -5.898884 -1.4031296c-1.8135757 -0.95451355 -3.779869 -2.6058197 -5.898884 -4.9539185c-1.5272255 3.7607803 -2.2908287 7.1683884 -2.2908287 10.222824c0 4.8107452 1.7276688 8.180168 5.1829987 10.108284c3.47443 1.9281158 7.559738 2.8921814 12.2559395 2.8921814c9.029694 0 16.44625 -2.844452 22.24968 -8.533348c5.8034286 -5.6888885 9.965111 -12.456383 12.4850235 -20.302475c2.5199127 -7.8651733 3.779869 -15.138557 3.779869 -21.820152c0 -7.1588364 -1.6990356 -13.344078 -5.0970993 -18.555717c-3.398056 -5.230728 -8.619247 -8.485619 -15.663544 -9.76466c5.6316147 -3.1689835 9.97464 -7.2733803 13.029091 -12.313206c3.0544357 -5.0398254 4.5816574 -10.261005 4.5816574 -15.6635475c0 -5.0398254 -1.3840485 -9.669209 -4.15213 -13.888153c-2.748993 -4.238035 -6.939308 -7.6456437 -12.570923 -10.222826c-5.6316147 -2.5771832 -12.5518265 -3.8657749 -20.760643 -3.8657749z" fill-rule="evenodd"/><path fill="#ffffff" d="m159.56775 52.883453c2.9398956 0 4.409836 2.4053726 4.409851 7.216114c0 4.8107414 -1.2026978 9.392399 -3.6080627 13.744976c-2.405365 4.333481 -5.574341 7.9129105 -9.506943 10.738266c-3.9325867 2.8062592 -8.065643 4.3239365 -12.399109 4.5530167c1.7563019 -9.392395 4.65802 -17.782562 8.705154 -25.170486c4.0471344 -7.387924 8.180176 -11.081886 12.399109 -11.081886zm-1.4031372 -9.306496c-11.034164 0 -20.130661 3.550785 -27.289505 10.652359c-7.1397552 7.0824776 -12.294121 15.49173 -15.463097 25.22776c-3.1689758 9.736023 -4.7534714 18.651169 -4.7534714 26.74543c0 9.621483 2.4053726 16.69442 7.21611 21.218811c4.8107452 4.5053024 11.559143 6.757942 20.245209 6.757942c15.214371 0 28.485657 -6.7977905 39.813873 -20.393387l0 0l-4.097122 19.333878l25.31366 0l11.969589 -56.46894c1.412674 -4.8107452 3.2930603 -8.705154 5.641159 -11.683235c2.3480988 -2.9971657 5.0398254 -4.4957504 8.07518 -4.4957504c4.2189484 0 6.328415 2.9876213 6.328415 8.962875c0 2.4626389 -0.41044617 5.6888885 -1.2313232 9.678749c-0.8208771 3.9898682 -1.6990204 8.037003 -2.6344452 12.141396c-0.22909546 0.8208771 -0.6681671 2.7012634 -1.3172302 5.6411667c-0.6490631 2.920807 -1.2695007 5.9370728 -1.8612976 9.048782c-0.57270813 3.111702 -0.8590698 5.89888 -0.8590698 8.3615265c0 5.746155 1.4031372 10.499626 4.2094116 14.2604065c2.825348 3.741684 7.3497314 5.6125336 13.573151 5.6125336c5.0398254 0 9.344681 -1.5272217 12.914551 -4.58165c3.588974 -3.0544434 5.727066 -7.5692825 6.414322 -13.544533l0 0c-1.0499573 0.70632935 -2.9780579 1.0595093 -5.7843323 1.0595093c-2.596283 0 -4.419403 -0.639534 -5.4693604 -1.9185715c-1.0499573 -1.2981415 -1.5749512 -3.121254 -1.5749512 -5.4693527c0 -2.0044785 0.38180542 -4.7343903 1.1454163 -8.18972c0.76361084 -3.45533 1.6131287 -7.006111 2.5485535 -10.652359c1.5272217 -5.9752426 2.7012634 -11.043701 3.5221558 -15.205376c0.8208771 -4.1616745 1.231308 -7.9415436 1.231308 -11.339607c0 -6.700676 -1.7658386 -11.692772 -5.297531 -14.976299c-3.5126038 -3.2835236 -8.256531 -4.9252815 -14.231781 -4.9252815c-7.8651886 0 -14.728119 3.2835236 -20.588837 9.850567l1.9472046 -9.134682l-25.3423 0l-11.966553 56.468945l-0.011474609 0c-5.3834534 5.994339 -10.337372 10.461456 -14.861755 13.401352c-4.505295 2.920807 -9.926941 4.3812103 -16.264893 4.3812103c-4.4671173 0 -7.7029114 -1.0213242 -9.707382 -3.06398c-1.9853973 -2.0617523 -2.9780731 -5.965706 -2.9780731 -11.711868c0 -1.1836014 0.12408447 -3.5317001 0.37225342 -7.044304c7.0252075 -0.47724915 13.649536 -2.3862686 19.87294 -5.7270737c6.223419 -3.3407822 11.205978 -7.7601776 14.947662 -13.258171c3.760788 -5.517082 5.6411743 -11.559143 5.6411743 -18.12619c0 -11.263241 -6.4524994 -16.894867 -19.357513 -16.894867z" fill-rule="evenodd"/><path fill="#ffffff" d="m361.3588 1.167979c-9.602386 0 -19.214325 2.2049234 -28.835815 6.61477c-9.62146 4.3907576 -17.51529 10.136921 -23.681427 17.238491c-6.147064 7.0824776 -9.220612 14.374954 -9.220612 21.877422c0 6.1088753 1.5463257 10.480545 4.6389465 13.114998c3.1116943 2.6344528 7.836548 3.9516792 14.1744995 3.9516792c0 -0.2290802 -0.4104309 -1.1931419 -1.2313232 -2.89217c-0.8208618 -1.6990318 -1.2313232 -4.7152863 -1.2313232 -9.048779c0 -9.392399 2.1381226 -17.34349 6.414337 -23.85326c4.295288 -6.509775 10.365997 -11.349152 18.212097 -14.518131l0 0l-25.485474 119.46675l25.31366 0l27.976746 -131.60815c-3.0544434 -0.22908294 -5.402527 -0.34362447 -7.0443115 -0.34362447zm135.8381 42.408978c-10.919617 0 -19.930206 3.550785 -27.031769 10.652359c-7.082489 7.0824776 -12.236847 15.49173 -15.463104 25.22776c-3.2262573 9.736023 -4.839386 18.651169 -4.839386 26.74543c0 0.96513367 0.02420044 1.9046173 0.072631836 2.8184433l0 0c-0.9664917 1.7251892 -1.9329834 3.1624374 -2.899475 4.3117676c-2.0999146 2.5199127 -4.906189 3.779869 -8.418793 3.779869c-2.596283 0 -4.4193726 -0.639534 -5.4693604 -1.9185715c-1.0499573 -1.2981415 -1.5749512 -3.121254 -1.5749512 -5.4693527c0 -2.0044785 0.38180542 -4.7343903 1.1454163 -8.18972c0.76361084 -3.45533 1.6131287 -7.006111 2.5485535 -10.652359c1.5272217 -5.9752426 2.7012634 -11.043701 3.5221558 -15.205376c0.8208618 -4.1616745 1.2313232 -7.9415436 1.2313232 -11.339607c0 -6.700676 -1.7658386 -11.692772 -5.2975464 -14.976299c-3.5126038 -3.2835236 -8.256531 -4.9252815 -14.231781 -4.9252815c-7.8651733 0 -14.728119 3.2835236 -20.588837 9.850567l1.9472046 -9.134682l-25.342285 0l-18.641632 87.96785l25.31366 0l11.9696045 -56.46894c1.4126587 -4.8107452 3.2930603 -8.705154 5.641144 -11.683235c2.348114 -2.9971657 5.0398254 -4.4957504 8.075195 -4.4957504c4.218933 0 6.3283997 2.9876213 6.3283997 8.962875c0 2.4626389 -0.4104309 5.6888885 -1.2313232 9.678749c-0.8208618 3.9898682 -1.6990051 8.037003 -2.6344604 12.141396c-0.22906494 0.8208771 -0.66815186 2.7012634 -1.3171997 5.6411667c-0.64907837 2.920807 -1.2695007 5.9370728 -1.8612976 9.048782c-0.5727234 3.111702 -0.8590698 5.89888 -0.8590698 8.3615265c0 5.6316147 1.6704102 10.356453 5.0111694 14.1744995c3.3407898 3.7989655 8.590637 5.6984406 15.749481 5.6984406c6.0897827 0 11.979095 -2.1953735 17.668 -6.586128c2.2801208 -1.7674713 4.452881 -4.2172775 6.518341 -7.3494186l0 0c1.1766357 2.8558884 2.7905884 5.2484207 4.841858 7.1776047c4.81073 4.5053024 11.49234 6.757942 20.044739 6.757942c17.123962 0 27.270447 -8.676514 30.439423 -26.029549l0 0c-3.0353699 2.5771866 -6.5193176 4.8298264 -10.451935 6.75795c-3.9325867 1.9281158 -7.483368 2.8921738 -10.652344 2.8921738c-7.0443115 0 -10.566437 -4.858467 -10.566437 -14.575401c0 -5.8798065 1.1454163 -12.828651 3.4362183 -20.84655c2.2908325 -8.036995 5.192566 -14.957214 8.70517 -20.760643c3.5317078 -5.822521 7.053833 -8.733788 10.566437 -8.733788c3.1689758 0 4.753479 2.4053726 4.753479 7.216114c0 3.1689835 -0.70632935 6.6338615 -2.1190186 10.394634c1.8708496 1.3935928 3.9230347 2.0903854 6.156616 2.0903854c2.577179 0 4.772522 -1.0499649 6.5861206 -3.149887c1.8326416 -2.1190186 2.7490234 -5.288002 2.7490234 -9.506947c0 -4.8107414 -1.4699707 -8.733788 -4.409851 -11.7691345c-2.9208374 -3.0544434 -7.960663 -4.581661 -15.119507 -4.581661z" fill-rule="evenodd"/><path fill="#ffffff" d="m532.7363 105.85889c-3.8753052 0 -7.168335 1.3744965 -9.879211 4.1234894c-2.6917114 2.748993 -4.0375366 6.0611496 -4.0375366 9.936478c0 3.8753204 1.3458252 7.1683884 4.0375366 9.879196c2.7108765 2.6917267 6.0039062 4.0375824 9.879211 4.0375824c3.8753052 0 7.1875 -1.3458557 9.936462 -4.0375824c2.7490234 -2.7108078 4.123535 -6.0038757 4.123535 -9.879196c0 -3.875328 -1.3745117 -7.1874847 -4.123535 -9.936478c-2.7489624 -2.748993 -6.061157 -4.1234894 -9.936462 -4.1234894z" fill-rule="evenodd"/><path stroke="#ffffff" stroke-width="1.0" stroke-linejoin="round" stroke-linecap="butt" d="m66.150536 1.167979c-10.900524 0 -21.285614 2.2049234 -31.155281 6.61477c-9.850565 4.3907576 -17.763462 10.165556 -23.73872 17.324398c-5.975256 7.1397476 -8.96287 14.699486 -8.96287 22.67921c0 5.746166 1.584481 9.879204 4.7534714 12.399113c3.1689897 2.5199127 7.8556542 3.779869 14.059965 3.779869c0 -0.2290802 -0.4104309 -1.1931419 -1.2313194 -2.89217c-0.8208904 -1.6990318 -1.2313213 -4.7152863 -1.2313213 -9.048779c0 -9.163315 2.1381168 -16.961678 6.414322 -23.395094c4.2953053 -6.452505 9.841032 -11.291882 16.637148 -14.518132c6.796135 -3.2262497 13.773613 -4.8393764 20.932457 -4.8393764c7.8651733 0 13.697243 1.8231173 17.496208 5.4693546c3.8180542 3.6271448 5.7270737 8.132445 5.7270737 13.515893c0 4.467119 -1.1740494 8.896059 -3.5221481 13.28681c-2.3480988 4.3907547 -5.4598083 8.027447 -9.335129 10.910076c-3.8562317 2.8826294 -8.017906 4.3239403 -12.4850235 4.3239403l-1.0308723 0l8.246983 -39.05864l-26.029549 3.493515l-23.939167 111.90701l25.3423 0l14.432228 -67.37902c2.2335587 -0.36271667 4.9348297 -0.5440674 8.103809 -0.5440674c11.129608 0 16.69442 7.454735 16.69442 22.36422c0 7.9606323 -1.4413223 15.234016 -4.323944 21.820152c-2.863533 6.567047 -7.225662 9.850563 -13.086365 9.850563c-2.1190147 0 -4.0853043 -0.4677124 -5.898884 -1.4031296c-1.8135757 -0.95451355 -3.779869 -2.6058197 -5.898884 -4.9539185c-1.5272255 3.7607803 -2.2908287 7.1683884 -2.2908287 10.222824c0 4.8107452 1.7276688 8.180168 5.1829987 10.108284c3.47443 1.9281158 7.559738 2.8921814 12.2559395 2.8921814c9.029694 0 16.44625 -2.844452 22.24968 -8.533348c5.8034286 -5.6888885 9.965111 -12.456383 12.4850235 -20.302475c2.5199127 -7.8651733 3.779869 -15.138557 3.779869 -21.820152c0 -7.1588364 -1.6990356 -13.344078 -5.0970993 -18.555717c-3.398056 -5.230728 -8.619247 -8.485619 -15.663544 -9.76466c5.6316147 -3.1689835 9.97464 -7.2733803 13.029091 -12.313206c3.0544357 -5.0398254 4.5816574 -10.261005 4.5816574 -15.6635475c0 -5.0398254 -1.3840485 -9.669209 -4.15213 -13.888153c-2.748993 -4.238035 -6.939308 -7.6456437 -12.570923 -10.222826c-5.6316147 -2.5771832 -12.5518265 -3.8657749 -20.760643 -3.8657749z" fill-rule="evenodd"/><path stroke="#ffffff" stroke-width="1.0" stroke-linejoin="round" stroke-linecap="butt" d="m159.56775 52.883453c2.9398956 0 4.409836 2.4053726 4.409851 7.216114c0 4.8107414 -1.2026978 9.392399 -3.6080627 13.744976c-2.405365 4.333481 -5.574341 7.9129105 -9.506943 10.738266c-3.9325867 2.8062592 -8.065643 4.3239365 -12.399109 4.5530167c1.7563019 -9.392395 4.65802 -17.782562 8.705154 -25.170486c4.0471344 -7.387924 8.180176 -11.081886 12.399109 -11.081886zm-1.4031372 -9.306496c-11.034164 0 -20.130661 3.550785 -27.289505 10.652359c-7.1397552 7.0824776 -12.294121 15.49173 -15.463097 25.22776c-3.1689758 9.736023 -4.7534714 18.651169 -4.7534714 26.74543c0 9.621483 2.4053726 16.69442 7.21611 21.218811c4.8107452 4.5053024 11.559143 6.757942 20.245209 6.757942c15.214371 0 28.485657 -6.7977905 39.813873 -20.393387l0 0l-4.097122 19.333878l25.31366 0l11.969589 -56.46894c1.412674 -4.8107452 3.2930603 -8.705154 5.641159 -11.683235c2.3480988 -2.9971657 5.0398254 -4.4957504 8.07518 -4.4957504c4.2189484 0 6.328415 2.9876213 6.328415 8.962875c0 2.4626389 -0.41044617 5.6888885 -1.2313232 9.678749c-0.8208771 3.9898682 -1.6990204 8.037003 -2.6344452 12.141396c-0.22909546 0.8208771 -0.6681671 2.7012634 -1.3172302 5.6411667c-0.6490631 2.920807 -1.2695007 5.9370728 -1.8612976 9.048782c-0.57270813 3.111702 -0.8590698 5.89888 -0.8590698 8.3615265c0 5.746155 1.4031372 10.499626 4.2094116 14.2604065c2.825348 3.741684 7.3497314 5.6125336 13.573151 5.6125336c5.0398254 0 9.344681 -1.5272217 12.914551 -4.58165c3.588974 -3.0544434 5.727066 -7.5692825 6.414322 -13.544533l0 0c-1.0499573 0.70632935 -2.9780579 1.0595093 -5.7843323 1.0595093c-2.596283 0 -4.419403 -0.639534 -5.4693604 -1.9185715c-1.0499573 -1.2981415 -1.5749512 -3.121254 -1.5749512 -5.4693527c0 -2.0044785 0.38180542 -4.7343903 1.1454163 -8.18972c0.76361084 -3.45533 1.6131287 -7.006111 2.5485535 -10.652359c1.5272217 -5.9752426 2.7012634 -11.043701 3.5221558 -15.205376c0.8208771 -4.1616745 1.231308 -7.9415436 1.231308 -11.339607c0 -6.700676 -1.7658386 -11.692772 -5.297531 -14.976299c-3.5126038 -3.2835236 -8.256531 -4.9252815 -14.231781 -4.9252815c-7.8651886 0 -14.728119 3.2835236 -20.588837 9.850567l1.9472046 -9.134682l-25.3423 0l-11.966553 56.468945l-0.011474609 0c-5.3834534 5.994339 -10.337372 10.461456 -14.861755 13.401352c-4.505295 2.920807 -9.926941 4.3812103 -16.264893 4.3812103c-4.4671173 0 -7.7029114 -1.0213242 -9.707382 -3.06398c-1.9853973 -2.0617523 -2.9780731 -5.965706 -2.9780731 -11.711868c0 -1.1836014 0.12408447 -3.5317001 0.37225342 -7.044304c7.0252075 -0.47724915 13.649536 -2.3862686 19.87294 -5.7270737c6.223419 -3.3407822 11.205978 -7.7601776 14.947662 -13.258171c3.760788 -5.517082 5.6411743 -11.559143 5.6411743 -18.12619c0 -11.263241 -6.4524994 -16.894867 -19.357513 -16.894867z" fill-rule="evenodd"/><path stroke="#ffffff" stroke-width="1.0" stroke-linejoin="round" stroke-linecap="butt" d="m361.3588 1.167979c-9.602386 0 -19.214325 2.2049234 -28.835815 6.61477c-9.62146 4.3907576 -17.51529 10.136921 -23.681427 17.238491c-6.147064 7.0824776 -9.220612 14.374954 -9.220612 21.877422c0 6.1088753 1.5463257 10.480545 4.6389465 13.114998c3.1116943 2.6344528 7.836548 3.9516792 14.1744995 3.9516792c0 -0.2290802 -0.4104309 -1.1931419 -1.2313232 -2.89217c-0.8208618 -1.6990318 -1.2313232 -4.7152863 -1.2313232 -9.048779c0 -9.392399 2.1381226 -17.34349 6.414337 -23.85326c4.295288 -6.509775 10.365997 -11.349152 18.212097 -14.518131l0 0l-25.485474 119.46675l25.31366 0l27.976746 -131.60815c-3.0544434 -0.22908294 -5.402527 -0.34362447 -7.0443115 -0.34362447zm135.8381 42.408978c-10.919617 0 -19.930206 3.550785 -27.031769 10.652359c-7.082489 7.0824776 -12.236847 15.49173 -15.463104 25.22776c-3.2262573 9.736023 -4.839386 18.651169 -4.839386 26.74543c0 0.96513367 0.02420044 1.9046173 0.072631836 2.8184433l0 0c-0.9664917 1.7251892 -1.9329834 3.1624374 -2.899475 4.3117676c-2.0999146 2.5199127 -4.906189 3.779869 -8.418793 3.779869c-2.596283 0 -4.4193726 -0.639534 -5.4693604 -1.9185715c-1.0499573 -1.2981415 -1.5749512 -3.121254 -1.5749512 -5.4693527c0 -2.0044785 0.38180542 -4.7343903 1.1454163 -8.18972c0.76361084 -3.45533 1.6131287 -7.006111 2.5485535 -10.652359c1.5272217 -5.9752426 2.7012634 -11.043701 3.5221558 -15.205376c0.8208618 -4.1616745 1.2313232 -7.9415436 1.2313232 -11.339607c0 -6.700676 -1.7658386 -11.692772 -5.2975464 -14.976299c-3.5126038 -3.2835236 -8.256531 -4.9252815 -14.231781 -4.9252815c-7.8651733 0 -14.728119 3.2835236 -20.588837 9.850567l1.9472046 -9.134682l-25.342285 0l-18.641632 87.96785l25.31366 0l11.9696045 -56.46894c1.4126587 -4.8107452 3.2930603 -8.705154 5.641144 -11.683235c2.348114 -2.9971657 5.0398254 -4.4957504 8.075195 -4.4957504c4.218933 0 6.3283997 2.9876213 6.3283997 8.962875c0 2.4626389 -0.4104309 5.6888885 -1.2313232 9.678749c-0.8208618 3.9898682 -1.6990051 8.037003 -2.6344604 12.141396c-0.22906494 0.8208771 -0.66815186 2.7012634 -1.3171997 5.6411667c-0.64907837 2.920807 -1.2695007 5.9370728 -1.8612976 9.048782c-0.5727234 3.111702 -0.8590698 5.89888 -0.8590698 8.3615265c0 5.6316147 1.6704102 10.356453 5.0111694 14.1744995c3.3407898 3.7989655 8.590637 5.6984406 15.749481 5.6984406c6.0897827 0 11.979095 -2.1953735 17.668 -6.586128c2.2801208 -1.7674713 4.452881 -4.2172775 6.518341 -7.3494186l0 0c1.1766357 2.8558884 2.7905884 5.2484207 4.841858 7.1776047c4.81073 4.5053024 11.49234 6.757942 20.044739 6.757942c17.123962 0 27.270447 -8.676514 30.439423 -26.029549l0 0c-3.0353699 2.5771866 -6.5193176 4.8298264 -10.451935 6.75795c-3.9325867 1.9281158 -7.483368 2.8921738 -10.652344 2.8921738c-7.0443115 0 -10.566437 -4.858467 -10.566437 -14.575401c0 -5.8798065 1.1454163 -12.828651 3.4362183 -20.84655c2.2908325 -8.036995 5.192566 -14.957214 8.70517 -20.760643c3.5317078 -5.822521 7.053833 -8.733788 10.566437 -8.733788c3.1689758 0 4.753479 2.4053726 4.753479 7.216114c0 3.1689835 -0.70632935 6.6338615 -2.1190186 10.394634c1.8708496 1.3935928 3.9230347 2.0903854 6.156616 2.0903854c2.577179 0 4.772522 -1.0499649 6.5861206 -3.149887c1.8326416 -2.1190186 2.7490234 -5.288002 2.7490234 -9.506947c0 -4.8107414 -1.4699707 -8.733788 -4.409851 -11.7691345c-2.9208374 -3.0544434 -7.960663 -4.581661 -15.119507 -4.581661z" fill-rule="evenodd"/><path stroke="#ffffff" stroke-width="1.0" stroke-linejoin="round" stroke-linecap="butt" d="m532.7363 105.85889c-3.8753052 0 -7.168335 1.3744965 -9.879211 4.1234894c-2.6917114 2.748993 -4.0375366 6.0611496 -4.0375366 9.936478c0 3.8753204 1.3458252 7.1683884 4.0375366 9.879196c2.7108765 2.6917267 6.0039062 4.0375824 9.879211 4.0375824c3.8753052 0 7.1875 -1.3458557 9.936462 -4.0375824c2.7490234 -2.7108078 4.123535 -6.0038757 4.123535 -9.879196c0 -3.875328 -1.3745117 -7.1874847 -4.123535 -9.936478c-2.7489624 -2.748993 -6.061157 -4.1234894 -9.936462 -4.1234894z" fill-rule="evenodd"/></g></svg>